<?xml version="1.0" encoding="utf-8"?>
<!-- Generator: Adobe Illustrator 24.1.0, SVG Export Plug-In . SVG Version: 6.00 Build 0)  -->
<svg version="1.1" id="Layer_1" xmlns="http://www.w3.org/2000/svg" xmlns:xlink="http://www.w3.org/1999/xlink" x="0px" y="0px"
	 viewBox="0 0 621.9 114.5" style="enable-background:new 0 0 621.9 114.5;" xml:space="preserve">
<style type="text/css">
	.st0{fill:#E41E39;}
	.st1{fill:#FFFFFF;}
</style>
<g>
	<path class="st0" d="M0,59.7c0.2-1.8,0.4-3.7,0.6-5.5C1,50.7,1.2,47.3,2.3,44c1.1-3.3,2.7-6.4,4.4-9.4c1.3-2.2,2.6-4.5,3.9-6.7
		c0.2-0.3,0.5-0.4,0.8-0.6c0.2-0.2,0.4-0.4,0.6-0.7c1.3-2.3,2.5-4.6,4.4-6.5c1.9-1.8,3.8-3.7,5.9-5.2c2.3-1.6,4.5-3.6,6.8-5.4
		c2.7-2.1,5.5-4.1,8.8-5.1c2.8-0.9,5.7-1.4,8.6-1.9c0.8-0.1,1.6,0,2.3,0.1c0,0.1,0,0.2,0,0.2C48.1,3,47.3,3,46.5,3.1
		c0,0.1,0,0.1,0,0.2c1,0.1,2,0.1,3,0.3c1.3,0.2,2.5-0.7,3.9-0.5c0.3,0,0.6,0,1.1,0c-1.4,0.5-2.7,1.1-3.9,1.5
		c-0.6,0.2-1.3,0.3-1.9,0.5c-0.3,0.1-0.6,0.3-1.1,0.6c0.3,0.1,0.5,0.2,0.7,0.3c-0.8,0.5-1.7,1-2.6,1.6c-0.5-0.5-1,0-1.4,0.3
		c-0.6,0.4-1.1,0.9-1.7,1.3c-0.6,0.4-0.9,0.8-0.7,1.6c0.1,0.2-0.1,0.5-0.3,0.6c-2.3,0.8-4.2,2.2-6,3.6c-1.2,0.9-2.4,1.6-3.6,2.4
		c-0.3,0.2-0.4,0.5-0.6,0.8c3.6-0.9,6.4-3.3,9.7-4.9c0.1,0.1,0.1,0.1,0.2,0.2c-0.3,0.3-0.5,0.6-0.8,0.8c-2.9,2.9-6.5,4.8-10,6.8
		c-2.5,1.4-4.4,3.3-6,5.6c-1,1.6-2.3,3-3.5,4.5c-0.3-0.2-0.6-0.3-1-0.5c-0.6,0.9-0.6,1.8-0.6,2.8c0,1.7,0,3.4-0.2,5.2
		c-0.2,2-0.3,1.7-2.1,1.2c1.5-1.1,1.3-2.7,1.5-4.1c-0.1,0-0.2,0-0.2,0c-1.2,1.4-2.4,2.8-3.5,4.3c-0.2,0.2-0.3,0.6-0.4,0.9
		c0.3,0.1,0.6,0.2,1,0.3c0.1,0,0.3,0,0.6,0c-0.2,0.6-0.3,1.2-0.5,2c-0.5-0.3-0.9-0.6-1.3-0.9c-0.8-0.7-1.2-0.6-1.7,0.3
		c-0.2,0.3-0.3,0.7-0.5,1.1c-0.5,1-0.5,2,0,3c0.4,0.8,0.7,1.8,1.1,2.7c0.2-0.2,0.5-0.6,0.8-0.9c0,1.4-0.4,2.8-1.3,3.5
		c0-1.9,0-3.9-2.1-5.2c-0.3,1.5-0.6,2.9-0.7,4.3c-0.2,2.5-0.3,5.1-0.5,7.6c0,0.2-0.1,0.4,0,0.5c0.2,0.3,0.4,0.7,0.7,1
		c0.3-0.3,0.8-0.6,0.9-1c0.1-0.4-0.1-0.8-0.3-1.3c-0.1-0.5-0.4-0.9-0.4-1.4c-0.1-0.7,0.2-1.3,1-1.6c-0.1,0.7-0.2,1.3-0.3,1.8
		c-0.1,0.4,0,0.7,0.5,0.8c0.5,0,0.9-0.1,0.8-0.7c0-0.5-0.2-1-0.1-1.6c0-0.4,0.2-0.9,0.4-1.1c0.2-0.1,0.8,0.1,1.1,0.3
		c0.3,0.3,0.3,0.8,0.3,1.2c0,0.2-0.3,0.5-0.4,0.8c-0.8,1.2-0.7,1.9,0.3,2.9c0.3,0.3,0.5,0.5,0.9,0.8c0.7-1.6-0.4-3.4,0.8-4.7
		c0.4,0.4,0.7,0.8,1,1.1c1.1,0.7,1.8,2.4,1.3,3.6c-0.3,0.7-0.6,1.4-0.8,2.1c-0.1,0.3-0.1,0.7,0,0.9c0.1,0.2,0.5,0.1,0.7,0.1
		c-0.1,1.9-0.3,4-0.3,6c0.1,1.9,0.5,3.8,0.8,5.7c0.1,0.4,0.3,0.8,0.5,1.1c0.5,0.8,0.6,0.8,1.5,0.4c0.2-0.1,0.6,0,0.9,0
		c0,0.3,0,0.5-0.1,0.8c0,0.2-0.1,0.4-0.2,0.6c1.1,0.2,1.6-0.4,2.2-1.1c0.1-0.1,0-0.5,0-0.7c0-0.4,0.2-0.9,0.2-1.3
		c-0.1-1.1-0.3-2.1-0.5-3.2c-0.2-0.8-0.4-1.6-1.3-2.1c-0.4-0.2-0.6-0.9-0.7-1.3c-0.5-2.6-0.9-5.3-0.5-8.2c0.5,1.6,0,3.1,0.8,4.5
		c0.4-0.2,0.8-0.4,1.2-0.7c0.6,1.8,0,3.5,0,5.3c0.1,0,0.1,0,0.2,0.1c0.3-0.3,0.5-0.6,0.9-1.1c0.5,0.8,1.2,1.5,1.5,2.3
		c0.7,1.7,1.2,3.5,1.7,5.2c0.2,0.4,0,0.7-0.4,0.8c-0.5,0.1-0.9,0.3-1.3,0.5c0.9,2,2.3,3.9,3.5,3.7c-0.1-0.1-0.2-0.3-0.2-0.4
		c-0.3-0.4-0.3-0.6,0.2-0.8c0.6-0.3,1.1-0.3,1.7,0.1c2.1,1.3,3.7,3.1,4.8,5.3c0.6,1.2,1.5,1.7,2.7,1.8c0.2,0,0.4,0.1,0.4,0.1
		c0.3,0.4,0.5,0.7,0.7,1c1,1.1,2,2.2,2.9,3.3c0.7,0.8,1.3,1.6,2.1,2.5c0.2-0.5,0.3-0.8,0.4-1.1c1.7,1,3.6,1.5,5.4,2
		c1.3,0.3,2.6,0.7,3.6,1.3c1.2,0.8,2.5,1.1,3.9,1.3c0.5,0.1,0.9,0.2,0.7,1.1c0.6-0.3,1-0.5,1.3-0.8c1.6-1.2,3.4-1.8,5.4-2
		c0.2,0,0.5,0.1,0.8,0.2c-0.1,0.3-0.2,0.8-0.4,0.8c-0.7,0.3-1.4,0.4-2.1,0.6c-0.8,0.2-1.6,0.3-2.4,0.4c-0.2,0-0.5,0.1-0.6,0.3
		c-0.4,0.5-0.7,1-1,1.5c0.5,0.3,0.9,0.6,1.4,0.7c0.5,0.1,1.1,0.1,1.7,0c0.2,0,0.5-0.3,0.5-0.4c0-0.2-0.2-0.5-0.4-0.6
		c-0.4-0.2-0.8-0.2-1.3-0.3c1.4-0.5,2.8-0.5,4.2-0.4c0.7,0.1,1.5,0.1,2.2,0.1c0.6,0,1.1-0.2,1.4-0.8c0.3-0.7-0.2-0.9-0.6-1.3
		c-0.1-0.1-0.1-0.1-0.1-0.3c1,0.5,1.8,1.5,3.2,1.2c-0.3,0.8-0.6,1.7-0.9,2.4c1.8-0.7,3.6-1.3,5.3-2.1c0.6-0.3,1.1-0.9,1.7-1.3
		c0.1-0.1,0.2-0.3,0.1-0.4c-0.1-0.1-0.4-0.3-0.5-0.3c-0.5,0.1-0.9,0.4-1.4,0.6c0-0.2,0.1-0.5,0.1-0.9c1.6,0.2,3.2,0.3,4.9,0.5
		c-0.1-0.4-0.2-0.6-0.2-0.8c0.3-0.1,0.6-0.3,0.8-0.4c1-0.6,2.1-1.1,3.1-1.7c0.2-0.1,0.5,0,0.8,0c0,0.1,0.1,0.2,0.1,0.2
		c2.1-2.2,4.3-4.4,6.3-6.7c2.3-2.5,4.5-5,6.7-7.5c0.6-0.7,0.6-0.7,0.2-1.5c0.4-0.3,0.8-0.8,1.3-1c0.6-0.3,0.9-0.7,1.2-1.3
		c0.9-2,1.9-4,2.9-5.9c0.4-0.7,0.6-1.5,0.5-2.3c-0.1-0.5,0-1,0-1.6c0-0.5-0.1-1,0-1.5c0-0.4,0.1-0.8,0.3-1.1
		c0.9-1.6,0.9-3.1,0.5-4.8c-0.4-1.8-0.5-3.6-0.6-5.4c-0.1-1.7-0.2-3.5-0.3-5.2c0-0.6,0-1.3,0-1.9c0-0.6-0.3-0.7-0.7-0.8
		c-1.3-0.3-2.2,0.3-2.5,1.8c-0.8-0.8-0.7-1.6,0.3-2c0.6-0.3,1.2-0.5,1.8-0.7c1.1-0.4,1.2-0.5,0.9-1.9c-0.3,0.1-0.7,0.1-0.9,0.1
		c0-0.9,0-1.7-0.1-2.5c-0.1-0.4-0.1-1.1-0.9-1c-0.1,0-0.2-0.3-0.2-0.5c-0.3-1.5-0.6-2.9-0.8-4.4c-0.1-1-0.5-1.8-1.4-2.4
		c-1-0.7-1.9-1.5-2.8-2.4c-0.9-0.9-1.6-1.9-2.3-2.9c1.7,1.6,3.3,3.1,5,4.7c0.1,0,0.1-0.1,0.2-0.2c-0.1-0.1-0.1-0.3-0.2-0.4
		c-1.8-2-3.5-4.1-5.4-6c-0.7-0.7-1.5-1.3-2.4-1.6c-1.4-0.5-2.6-1.2-4-1.7c-1-0.3-1.9-0.9-2.8-1.5c-1.8-1.3-3.8-2.2-5.9-2.9
		c-0.3-0.1-0.6-0.4-0.7-0.6c-0.3-1.8-2.1-2.8-4.1-2.4c-0.4,0.1-0.7,0.1-1.1,0.3c-2,0.7-3.5,0.3-4.7-1.4c0-0.1-0.1-0.1-0.4-0.4
		c0,0.5-0.1,0.8,0,1c0.2,0.5,0.7,1.1-0.2,1.4c-0.8,0.4-1.4,0.1-1.7-0.8c0-0.1-0.1-0.1-0.1-0.4c0.9-0.6,1.8-1.3,2.8-1.9
		c0.6-0.4,0.6-0.8,0.5-1.3c-0.2-0.6-0.6-0.4-1-0.3C66.7,8.7,65.3,8.9,64,9c1.5-0.4,2.9-0.8,4.4-1.1c0-0.1,0.1-0.2,0.1-0.3
		c-0.6-0.5-1.2-1.1-1.9-1.5c-1.3-0.8-1.9-1,0.2-2c1.1-0.6,2.4-0.9,3.4-1.6c1.1-0.8,2.4-0.6,3.6-1c0.2,0.9-0.7,0.8-1.1,1.2
		c0.2,0.1,0.4,0.3,0.7,0.3c4.5,0.6,8.5,2.6,12.4,4.8C87.5,8.7,89,10,90.7,11c1.3,0.9,2.7,1.5,4,2.4c1.1,0.7,2.3,1.5,3.3,2.4
		c2.2,2,2.9,4.8,3.6,7.5c0,0.1,0.1,0.3,0.1,0.5c0.3-0.2,0.5-0.3,0.8-0.5c0.8,1,1.6,1.9,2.3,2.9c1.5,1.9,2,4.2,1.9,6.6
		c0,0.2,0.3,0.5,0.4,0.5c0.4,0,0.7-0.1,1.1-0.2c0.9,1.4-0.4,3.2,0.9,4.6c0.2-0.1,0.4-0.2,0.7-0.2c0,0,0.1,0.1,0.1,0.1
		c-0.5,3,0.3,5.8,0.8,8.7c0.1,0.5,0.2,1,0.3,1.5c0,0,0,0-0.1,0.1c-0.2-0.3-0.4-0.6-0.6-0.9c-0.1,0-0.1,0-0.1,0c0,0.7,0.1,1.3,0.1,2
		c0,0-0.1,0-0.1,0c-0.1-0.6-0.2-1.3-0.3-1.9c-0.1-0.7-0.3-1.4-0.4-2.1c-0.1-0.4-0.1-0.7-0.6-0.7c-0.1,0-0.3-0.4-0.3-0.5
		c0.1-0.8,0.3-1.6,0.4-2.5c0.2,0.1,0.4,0.2,0.6,0.4c-0.1-0.4-0.3-0.9-0.3-0.9c-0.8,0.2-0.7-0.6-1-1c-0.4-0.4-0.7-0.8-1-1.2
		c-0.1-0.2-0.2-0.4-0.2-0.6c0.3-1.5-0.3-2.2-1.9-2.3c0.1,0.2,0.1,0.4,0.2,0.5c1.8,2.9,2.7,6.1,2.6,9.5c0,0.6,0.3,1.2,0.4,1.8
		c0.4,1.7,0.8,3.3,1.2,4.9c0.5,1.8,1.1,3.7,1.7,5.6c0.5-0.8,0.6-2.2,0.4-3.6c-0.3-1.8-0.5-3.7-0.7-5.7c1.5,1.7,1.8,3.2,0.9,4.7
		c0.1,0.1,0.2,0.1,0.3,0.2c1.5,0.7,1.6,0.9,0.7,2.4c-0.4,0.6-0.5,1.1-0.3,1.8c0.5,1.7,0.8,3.3,0.6,5.1c0,0.4,0,0.8,0,1.2
		c0.1,0,0.2,0.1,0.3,0.1c0.3-0.9,0.6-1.7,1-2.6c0,0,0.1,0,0.1,0c-0.1,0.5-0.1,1-0.1,1.5c-0.1,1.3-0.4,2.5-0.3,3.8
		c0.1,2.5-0.5,4.7-1.6,6.9c-0.8,1.7-1.5,3.5-2.3,5.3c-0.9,2-1.8,3.9-2.6,5.9c-0.1,0.3-0.3,0.7-0.4,1.1c1.6-0.6,2.9-1.8,4-3.1
		s2.1-2.7,3.2-4c0.1,0.1,0.2,0.1,0.3,0.2c-0.1,0.3-0.1,0.6-0.2,0.9c-0.9,2.9-2.5,5.5-4.6,7.8c-2.7,3.1-5.5,6.1-8.3,9.2
		c-3.7,4.1-7.7,7.9-12.4,10.9c-0.1,0-0.1,0.1-0.3,0.2c0.3,0,0.4,0,0.6,0c-1,0.6-1.8,1.2-3,1.4c-1.5,0.2-2.9,1.1-4.2,1.8
		c0.3-0.1,0.5-0.1,0.7-0.1c0,0.1,0.1,0.2,0.1,0.3c-2.9,1-5.8,1.9-8.7,2.9c0-0.1,0-0.1-0.1-0.2c0.7-0.4,1.4-0.7,2.1-1
		c0-0.1,0-0.2-0.1-0.3c-0.3,0.1-0.7,0.1-1,0.2c-3.5,1.4-7.1,1.7-10.8,1.4c-0.6-0.1-1.2,0.1-1.8,0.2c-2.2,0.4-4.4,0.5-6.6-0.1
		c-0.7-0.2-1.4-0.3-2.2-0.1c-0.9,0.2-2-0.1-2.9-0.3c-1.3-0.3-2.6-0.8-3.9-1.1c-1-0.3-2-0.4-3.1-0.6c-3-0.4-5.5-1.6-7.5-3.9
		c-0.2-0.2-0.4-0.2-0.6-0.4c-0.1,0.2-0.1,0.3-0.3,0.6c-1.7-0.4-3.5-0.7-5.2-1.4c-1.1-0.4-2-1.1-2.9-1.9c-2.1-1.7-4.1-3.5-6.2-5.2
		c-0.6-0.5-1.3-0.8-1.9-1.2c-3.2-2-5.2-4.9-6.2-8.6c-0.2-0.6-0.5-1.1-0.9-1.5c-0.9-1.1-2-2.1-2.9-3.2c-1.5-1.7-2.5-3.7-2.8-5.9
		c-0.2-1-0.7-2-1.3-2.9c-1.4-2.1-2.2-4.4-2.9-6.8c-0.1-0.3-0.1-0.6-0.2-0.8c-1.5-2.1-1.9-4.6-2.3-7c0-0.1-0.1-0.2-0.1-0.3
		C0,61,0,60.3,0,59.7z M98.7,84.3c0.1,0,0.1,0.1,0.2,0.1c1-0.9,2-1.8,3-2.7c-1.6,2-3.4,3.9-5.1,5.8c-0.2,0.2-0.3,0.4-0.3,0.6
		c0,0.7-0.2,1.1-0.9,1.2c-0.6,0.1-0.9,0.4-1,0.9c-0.1,0.3-0.2,0.6-0.2,0.8c0,0.1-0.1,0.1-0.1,0.2c-0.2-0.2-0.3-0.4-0.5-0.6
		c-1,1.2-1.8,2.4-3.1,3c-0.7,0.3-1.2,0.9-1.7,1.5c-0.2,0.2-0.2,0.5-0.3,0.7c0.3,0.1,0.6,0.2,0.8,0.2c0.2,0,0.5-0.2,0.9-0.3
		c-0.9,1.1-2,1.4-3.2,1.5c-0.5,0-1.1,0.2-1.5,0.4c-1.4,0.8-2.6,1.8-4.1,2.4c-1.6,0.6-3.3,1.3-4.9,1.9c-0.4,0.1-0.8,0.2-1.1,0.2
		c-0.6,0.1-1.3,0.1-1.9,0.2c-2.8,0.6-5.5,1.3-8.4,1c-0.8-0.1-1.6,0.1-2.4,0.1c0,0.1,0,0.1,0,0.2c3-0.1,6.1,0.5,9.1-0.5
		c0,0.1,0,0.2,0,0.3c-1.6,0.3-3.1,0.5-4.7,0.8c3.7,0.4,7.1-0.7,10.5-2c0,0.1,0.1,0.2,0.1,0.3c-2.8,0.9-5.5,1.9-8.4,2.9
		c2.2-0.2,4.1-0.7,6-1.3c1.9-0.6,3.8-1.3,5.7-2.1c1.8-0.8,3.6-1.7,5.4-2.5c-0.8,0.5-1.6,1-2.3,1.5c0,0.1,0.1,0.1,0.1,0.2
		c6.7-3.9,12.1-9.3,17.1-15.2c-2.6,2.5-5.1,5.1-7.6,7.6c-0.1-0.1-0.2-0.2-0.2-0.2c0.8-0.7,1.6-1.4,2.3-2.2c1.9-2.1,3.8-4.2,5.7-6.4
		c1.5-1.7,3.2-3.3,4.4-5.2c1.4-2.1,2.3-4.5,3.3-6.7c0.1-0.1,0-0.4-0.1-0.6c-0.5-0.9-0.2-1.6,0.8-1.7c0.3,0,0.6-0.3,0.7-0.5
		c0.3-1.1,0.6-2.2,0.6-3.3c0-1.5,0.2-2.9,0.6-4.2c0.1-0.4,0.2-0.9,0.3-1.3c-0.1,0-0.1-0.1-0.2-0.1c-0.3,0.5-0.6,1-1,1.4
		c-0.5,0.6-1,1.4-1.7,1.8c-0.5,0.3-0.6,0.6-0.6,1.1c-0.1,1.1,0.1,2.3-0.3,3.2c-1.4,3.1-2.9,6.2-4.4,9.3c0,0.1-0.1,0.1-0.1,0.1
		c-1.5,1.7-3,3.3-4.5,5C99.1,83.6,98.9,84,98.7,84.3z M106.6,40c-0.3,1.2-0.7,2.2-0.7,3.2c0,1.8,0.3,3.5,0.4,5.3
		c0,0.2,0.3,0.4,0.5,0.7c0.1-0.2,0.3-0.5,0.3-0.7c0-0.8-0.2-1.6-0.1-2.3C107.2,44.1,107.2,42.1,106.6,40z M32.2,9.2
		c-2.8,2.1-5.7,4-7.7,6.9c0.3-0.1,0.5-0.4,0.7-0.5c2.4-1.8,4.8-3.5,7.2-5.3C32.9,10,32.9,9.8,32.2,9.2z M105.5,71.1
		c0.5-1.2,1.2-2.3,1.3-3.4c0.2-1.1-0.2-2.3-0.3-3.5c-0.6,0.3-0.4,0.9-0.4,1.3c0,1.4-0.1,2.7-0.9,3.9c-0.2,0.3-0.4,0.7-0.6,1.1
		C104.9,70.7,105.1,70.8,105.5,71.1z M103.3,73.1c-0.8,1.9-1.7,3.7-2.5,5.6c0.1,0.1,0.2,0.1,0.3,0.2c0.2-0.2,0.3-0.4,0.5-0.6
		c1.1-1.1,1.6-2.6,2.3-4C104.1,73.7,103.9,73.4,103.3,73.1z M108.9,63.9c0.8-0.6,1.5-1.1,2.1-1.7c0.3-0.3,0.4-0.9,0.5-1.3
		c0,0-0.5-0.3-0.6-0.3C109.8,61.4,108.7,62.2,108.9,63.9z M93.9,85.7c0.1,0.1,0.1,0.1,0.2,0.2c0.2-0.2,0.4-0.3,0.6-0.5
		c1.2-1.2,2.3-2.4,3.4-3.6c0.1-0.2,0.1-0.4,0.2-0.7c-0.2,0.1-0.5,0.1-0.7,0.2c-1.2,1.3-2.3,2.6-3.4,3.9C94,85.3,94,85.5,93.9,85.7z
		 M104.9,35.8c-0.1,0-0.3,0.1-0.4,0.1c0.1,0.9,0.2,1.9,0.4,2.8c0.1,0.3,0.6,0.6,0.9,0.8c0,0,0.5-0.3,0.4-0.4
		C105.8,38,105.4,36.9,104.9,35.8z M98.3,84.8c-0.1-0.1-0.1-0.1-0.2-0.2c-1,1.2-2,2.3-3.1,3.6C95.6,88.2,98.1,85.6,98.3,84.8z
		 M66.5,106.4c-1.4-0.7-2.8-0.7-4.2-0.3c0,0.1,0,0.2,0,0.3C63.7,106.4,65.1,106.4,66.5,106.4z M88.6,94.6c0.1,0.1,0.1,0.1,0.2,0.2
		c1.4-0.8,2.6-2.1,2.6-2.8C90.4,92.9,89.5,93.7,88.6,94.6z M46.3,104.4c0.3,0.9,1.1,0.8,1.7,0.9C48,104.4,47.8,104.3,46.3,104.4z
		 M61.1,106.9c-0.6-0.7-1.2-0.2-1.9,0C59.8,107.4,60.5,107,61.1,106.9z M57,106.5c0,0.1-0.1,0.2-0.1,0.3c0.6,0.2,1.2,0.4,1.8,0.6
		C58.2,106.4,58,106.3,57,106.5z M93.7,86.2c-0.1-0.1-0.1-0.1-0.2-0.2c-0.5,0.6-1.1,1.2-1.6,1.8c0.1,0.1,0.1,0.1,0.2,0.2
		C92.7,87.3,93.2,86.8,93.7,86.2z M104.3,71c-0.2,0.4-0.4,0.8-0.6,1.1c0.1,0,0.1,0.1,0.1,0.1c0.3-0.2,0.6-0.4,1-0.6
		c-0.1-0.2-0.1-0.3-0.2-0.4C104.6,71.3,104.5,71.2,104.3,71z M112.3,57.6c-0.6,0.9-0.6,1.3,0,1.6C112.3,58.8,112.3,58.3,112.3,57.6z
		 M99.4,79.9c0.1,0,0.2,0.1,0.2,0.1c0.2-0.5,0.5-0.9,0.7-1.4C99.8,79,99.2,79.2,99.4,79.9z"/>
	<path class="st0" d="M59.2,4.9c2.5,1.9,3.8,5.6,2.6,8.8c-0.2-0.2-0.4-0.4-0.5-0.6c-0.7-2.5-1.4-5-2.1-7.4
		C59.2,5.5,59.2,5.3,59.2,4.9z M61.6,13.1c1-2.2-0.1-6.2-2.1-7.5C60.2,8.2,60.9,10.6,61.6,13.1z"/>
	<path class="st0" d="M118.3,74.9c-1.1,2.2-2.2,4.4-3.2,6.4C115.6,78.9,116.5,76.7,118.3,74.9z"/>
	<path class="st0" d="M22.2,49.2c0.4,0.5,0.8,1.1,1.1,1.6c0,0-0.1,0-0.1,0.1c-0.3-0.2-0.5-0.4-0.8-0.6c-0.5-0.3-1-0.3-1.2,0.4
		c-0.1,0.2-0.4,0.5-0.5,0.4c-0.3-0.1-0.5-0.3-0.8-0.5c0.2-0.2,0.3-0.4,0.5-0.6C21.1,49.7,21.6,49.4,22.2,49.2z"/>
	<path class="st0" d="M120.5,54.9c-0.1-0.8-0.2-1.6-0.3-2.4c0-0.1,0.1-0.2,0.2-0.4c0.2,1,0.3,1.9,0.5,2.8
		C120.7,54.9,120.6,54.9,120.5,54.9z"/>
	<path class="st0" d="M118.3,33.3c0.3,0.9,0.6,1.8,0.9,2.7c-0.1,0-0.2,0.1-0.2,0.1c-0.3-0.9-0.6-1.8-0.9-2.7
		C118.2,33.4,118.2,33.4,118.3,33.3z"/>
	<path class="st0" d="M72.9,0c0.4,0.4,0.8,0.7,1.1,1c0,0.1-0.1,0.1-0.1,0.2c-0.4-0.3-0.8-0.5-1.1-0.9C72.7,0.3,72.9,0,72.9,0z"/>
	<path class="st0" d="M98.7,84.3c0.2-0.3,0.4-0.7,0.7-1c1.5-1.7,3-3.4,4.5-5c0,0,0.1-0.1,0.1-0.1c1.5-3.1,3.1-6.1,4.4-9.3
		c0.4-0.9,0.2-2.2,0.3-3.2c0-0.5,0.1-0.8,0.6-1.1c0.7-0.4,1.2-1.2,1.7-1.8c0.4-0.4,0.7-1,1-1.4c0.1,0,0.1,0.1,0.2,0.1
		c-0.1,0.4-0.2,0.9-0.3,1.3c-0.5,1.4-0.6,2.8-0.6,4.2c0,1.1-0.4,2.3-0.6,3.3c-0.1,0.2-0.4,0.4-0.7,0.5c-1,0.2-1.4,0.8-0.8,1.7
		c0.1,0.2,0.1,0.4,0.1,0.6c-1.1,2.3-2,4.6-3.3,6.7c-1.2,1.9-2.9,3.5-4.4,5.2c-1.9,2.1-3.8,4.3-5.7,6.4c-0.7,0.8-1.6,1.5-2.3,2.2
		c0.1,0.1,0.2,0.2,0.2,0.2c2.6-2.5,5.1-5.1,7.6-7.6c-5,5.9-10.3,11.3-17.1,15.2c0-0.1-0.1-0.1-0.1-0.2c0.8-0.5,1.6-1.1,2.3-1.5
		c-1.8,0.8-3.6,1.7-5.4,2.5c-1.8,0.8-3.7,1.5-5.7,2.1s-3.9,1.1-6,1.3c2.9-1,5.7-1.9,8.4-2.9c0-0.1-0.1-0.2-0.1-0.3
		c-3.4,1.2-6.8,2.3-10.5,2c1.6-0.3,3.1-0.5,4.7-0.8c0-0.1,0-0.2,0-0.3c-3,1-6.1,0.5-9.1,0.5c0-0.1,0-0.1,0-0.2
		c0.8-0.1,1.6-0.2,2.4-0.1c2.9,0.4,5.7-0.4,8.4-1c0.6-0.1,1.3-0.1,1.9-0.2c0.4-0.1,0.8-0.1,1.1-0.2c1.6-0.6,3.3-1.3,4.9-1.9
		c1.5-0.6,2.7-1.6,4.1-2.4c0.4-0.3,1-0.4,1.5-0.4c1.2,0,2.3-0.3,3.2-1.5c-0.4,0.2-0.7,0.3-0.9,0.3c-0.3,0-0.6-0.2-0.8-0.2
		c0.1-0.2,0.2-0.5,0.3-0.7c0.6-0.5,1.1-1.2,1.7-1.5c1.4-0.7,2.2-1.9,3.1-3c0.2,0.2,0.3,0.3,0.5,0.6c0.1-0.1,0.1-0.2,0.1-0.2
		c0.1-0.3,0.2-0.6,0.2-0.8c0.1-0.5,0.4-0.8,1-0.9c0.7-0.1,0.9-0.5,0.9-1.2c0-0.2,0.2-0.4,0.3-0.6c1.7-1.9,3.5-3.8,5.1-5.8
		c-1,0.9-2,1.8-3,2.7C98.8,84.4,98.7,84.4,98.7,84.3z"/>
	<path class="st0" d="M106.6,40c0.6,2.1,0.6,4.1,0.4,6.1c-0.1,0.8,0.1,1.6,0.1,2.3c0,0.2-0.2,0.5-0.3,0.7c-0.2-0.2-0.5-0.4-0.5-0.7
		c-0.2-1.8-0.4-3.5-0.4-5.3C105.9,42.2,106.3,41.2,106.6,40z"/>
	<path class="st0" d="M32.2,9.2c0.7,0.6,0.7,0.8,0.2,1.1c-2.4,1.7-4.8,3.5-7.2,5.3c-0.2,0.2-0.5,0.4-0.7,0.5
		C26.5,13.2,29.4,11.3,32.2,9.2z"/>
	<path class="st0" d="M105.5,71.1c-0.4-0.3-0.6-0.4-0.9-0.6c0.2-0.4,0.4-0.8,0.6-1.1c0.8-1.2,0.9-2.5,0.9-3.9c0-0.5-0.2-1.1,0.4-1.3
		c0.1,1.2,0.5,2.4,0.3,3.5C106.7,68.8,106,69.9,105.5,71.1z"/>
	<path class="st0" d="M103.3,73.1c0.6,0.3,0.8,0.6,0.5,1.2c-0.7,1.4-1.1,2.9-2.3,4c-0.2,0.2-0.3,0.4-0.5,0.6
		c-0.1-0.1-0.2-0.1-0.3-0.2C101.6,76.8,102.4,75,103.3,73.1z"/>
	<path class="st0" d="M108.9,63.9c-0.1-1.7,0.9-2.5,2-3.3c0.1-0.1,0.6,0.2,0.6,0.3c-0.1,0.5-0.2,1-0.5,1.3
		C110.4,62.8,109.6,63.3,108.9,63.9z"/>
	<path class="st0" d="M93.9,85.7c0.1-0.2,0.2-0.3,0.3-0.5c1.1-1.3,2.3-2.6,3.4-3.9c0.1-0.2,0.4-0.2,0.7-0.2
		c-0.1,0.2-0.1,0.5-0.2,0.7c-1.1,1.2-2.3,2.4-3.4,3.6c-0.2,0.2-0.4,0.3-0.6,0.5C94,85.8,93.9,85.7,93.9,85.7z"/>
	<path class="st0" d="M104.9,35.8c0.5,1.1,0.9,2.2,1.4,3.3c0,0.1-0.4,0.4-0.4,0.4c-0.4-0.2-0.9-0.5-0.9-0.8
		c-0.2-0.9-0.3-1.9-0.4-2.8C104.6,35.9,104.7,35.8,104.9,35.8z"/>
	<path class="st0" d="M98.3,84.8c-0.2,0.8-2.7,3.4-3.3,3.4c1.1-1.3,2.1-2.4,3.1-3.6C98.2,84.7,98.2,84.8,98.3,84.8z"/>
	<path class="st0" d="M66.5,106.4c-1.4,0-2.8,0-4.2,0c0-0.1,0-0.2,0-0.3C63.7,105.8,65.1,105.8,66.5,106.4z"/>
	<path class="st0" d="M88.6,94.6c0.9-0.9,1.8-1.7,2.7-2.6c0.1,0.7-1.2,2-2.6,2.8C88.7,94.7,88.7,94.6,88.6,94.6z"/>
	<path class="st0" d="M46.3,104.4c1.4-0.1,1.7,0,1.7,0.9C47.4,105.1,46.7,105.3,46.3,104.4z"/>
	<path class="st0" d="M61.1,106.9c-0.7,0.2-1.3,0.6-1.9,0C59.9,106.7,60.5,106.2,61.1,106.9z"/>
	<path class="st0" d="M57,106.5c1-0.1,1.3-0.1,1.7,0.8c-0.6-0.2-1.2-0.4-1.8-0.6C56.9,106.7,56.9,106.6,57,106.5z"/>
	<path class="st0" d="M93.7,86.2c-0.5,0.6-1,1.2-1.6,1.7c-0.1-0.1-0.1-0.1-0.2-0.2c0.5-0.6,1.1-1.2,1.6-1.8
		C93.6,86,93.6,86.1,93.7,86.2z"/>
	<path class="st0" d="M104.3,71c0.2,0.2,0.3,0.2,0.3,0.3c0.1,0.1,0.1,0.2,0.2,0.4c-0.3,0.2-0.6,0.4-1,0.6c-0.1,0-0.1-0.1-0.1-0.1
		C103.9,71.8,104.1,71.5,104.3,71z"/>
	<path class="st0" d="M112.3,57.6c0,0.6,0,1.1,0,1.6C111.7,58.9,111.7,58.6,112.3,57.6z"/>
	<path class="st0" d="M99.4,79.9c-0.2-0.7,0.5-0.9,1-1.3c-0.2,0.5-0.5,0.9-0.7,1.4C99.5,80,99.4,80,99.4,79.9z"/>
	<path class="st0" d="M61.6,13.1c-0.7-2.5-1.4-5-2.1-7.5C61.4,6.9,62.6,10.9,61.6,13.1z"/>
</g>
<image style="display:none;overflow:visible;enable-background:new    ;" width="771" height="732" xlink:href="69275996.png"  transform="matrix(1 0 0 1 -185.26 -331.534)">
</image>
<g>
	<rect x="163.7" y="73.2" class="st1" width="125.5" height="2.6"/>
	<polygon class="st1" points="166.1,48.9 172.7,48.9 172.7,55.9 176.1,55.9 176.1,39.5 172.7,39.5 172.7,46.2 166.1,46.2 
		166.1,39.5 162.7,39.5 162.7,55.9 166.1,55.9 	"/>
	<path class="st0" d="M308.7,74.6c0.3-0.5,0.5-1.1,0.5-1.8c0-1-0.4-1.8-1-2.4c-0.7-0.6-1.7-0.8-3-0.8h-4v10.8h2.2v-3.9h1.8l2,3.9
		h2.4v-0.1l-2.3-4.4C307.9,75.5,308.4,75.1,308.7,74.6z M306.5,74.1c-0.3,0.3-0.7,0.4-1.3,0.4h-1.8v-3.2h1.8c0.6,0,1,0.2,1.3,0.4
		c0.3,0.3,0.4,0.7,0.4,1.2C306.9,73.4,306.8,73.8,306.5,74.1z"/>
	<path class="st1" d="M526.3,50h2.1l4.1,6.2h3.6V56l-4-6.9c1-0.5,1.2-1.1,1.6-1.8c0.5-0.8,0.7-1.7,0.7-2.9c0-1.6-0.5-2.9-1.5-3.8
		c-1-0.9-2-1.3-3.9-1.3h-6v16.9h3.3L526.3,50L526.3,50z M526.3,42.1h2.7c0.9,0,1,0.2,1.5,0.7s0.7,1.1,0.7,1.9c0,0.8-0.2,1.4-0.7,1.8
		c-0.5,0.4-0.6,0.7-1.4,0.7h-2.7L526.3,42.1L526.3,42.1z"/>
	<path class="st1" d="M269.2,50.1h2.8c1.8,0,3.2-0.5,4.2-1.4c1-0.9,1.5-2.2,1.5-3.8c0-1.1-0.2-2-0.7-2.8s-1.1-1.5-2-1.9
		c-0.9-0.4-1.9-0.7-3-0.7h-5.9v16.4h3.1V50.1z M269.2,42.2h2.9c0.8,0,1.4,0.3,1.8,0.8s0.7,1.2,0.7,2c0,0.8-0.2,1.4-0.6,1.8
		s-1.1,0.6-1.9,0.6h-2.8L269.2,42.2L269.2,42.2z"/>
	<path class="st1" d="M552.6,55.5c1.3,0.7,2.8,1.1,4.4,1.1c1.7,0,3.1-0.4,4.4-1.1c1.3-0.7,2.3-1.8,3-3.1c0.7-1.3,1-2.9,1-4.7v-0.8
		c0-1.8-0.3-3.3-1.1-4.7c-0.7-1.3-1.7-2.4-3-3.1c-1.3-0.7-2.8-1.1-4.4-1.1s-3.1,0.4-4.4,1.1s-2.3,1.8-3,3.1
		c-0.7,1.3-1.1,2.9-1.1,4.7v0.9c0,1.7,0.4,3.3,1.1,4.6C550.3,53.8,551.3,54.8,552.6,55.5z M552.6,46.9c0-1.9,0.4-3.3,1.1-4.3
		c0.8-1,1.8-1.4,3.2-1.4c1.4,0,2.5,0.5,3.2,1.5c0.8,1,1.1,2.4,1.1,4.3v0.9c0,1.9-0.4,3.3-1.1,4.3s-1.8,1.5-3.2,1.5
		c-1.4,0-2.5-0.5-3.2-1.5c-0.8-1-1.1-2.4-1.1-4.3L552.6,46.9L552.6,46.9z"/>
	<path class="st1" d="M496.3,55.4c1.2,0.7,2.6,1,4.2,1c1.5,0,2.9-0.2,4.2-0.6s2.2-1,2.9-1.8v-6.8h-7.3v2.6h3.5v2.9
		c-0.6,0.6-1.6,0.8-3.1,0.8c-1.4,0-2.5-0.5-3.2-1.4c-0.7-0.9-1.1-2.3-1.1-4.1V47c0-1.8,0.3-3.1,1-4c0.7-0.9,1.7-1.3,3-1.3
		c1,0,1.8,0.2,2.4,0.7c0.6,0.4,1,1.2,1.1,2.2h3.7c-0.2-1.8-1-3.3-2.2-4.2c-1.2-1-3-1.5-5.2-1.5c-1.6,0-3,0.3-4.1,1
		c-1.2,0.7-2.1,1.6-2.7,2.9s-0.9,2.7-0.9,4.4v1.2c0,1.7,0.3,3.1,1,4.3C494.2,53.8,495.1,54.8,496.3,55.4z"/>
	<polygon class="st1" points="202.5,53.2 194.8,53.2 194.8,48.8 201.3,48.8 201.3,46.2 194.8,46.2 194.8,42.2 202.4,42.2 
		202.4,39.5 191.4,39.5 191.4,55.9 202.5,55.9 	"/>
	<polygon class="st1" points="134.5,42.2 139.4,42.2 139.4,55.9 142.8,55.9 142.8,42.2 147.8,42.2 147.8,39.5 134.5,39.5 	"/>
	<path class="st1" d="M238.2,56c1.3,0.7,2.8,1.1,4.4,1.1c1.7,0,3.1-0.4,4.4-1.1c1.3-0.7,2.3-1.8,3-3.1s1-2.9,1-4.7v-0.8
		c0-1.8-0.4-3.3-1.1-4.7c-0.7-1.3-1.7-2.4-3-3.1c-1.3-0.7-2.8-1.1-4.4-1.1s-3.1,0.4-4.4,1.1s-2.3,1.8-3,3.1
		c-0.7,1.3-1.1,2.9-1.1,4.7v0.9c0,1.7,0.4,3.3,1.1,4.6C235.9,54.3,236.9,55.3,238.2,56z M238.3,47.4c0-1.9,0.4-3.3,1.1-4.3
		c0.8-1,1.8-1.4,3.2-1.4c1.4,0,2.5,0.5,3.2,1.5c0.8,1,1.1,2.4,1.1,4.3v0.9c0,1.9-0.4,3.3-1.1,4.3S244,54,242.6,54
		c-1.4,0-2.5-0.5-3.2-1.5c-0.8-1-1.1-2.4-1.1-4.3V47.4z"/>
	<polygon class="st0" points="319.1,75.6 323.3,75.6 323.3,73.9 319.1,73.9 319.1,71.3 324.1,71.3 324.1,69.5 316.8,69.5 
		316.8,80.3 324.1,80.3 324.1,78.5 319.1,78.5 	"/>
	<polygon class="st1" points="319.8,48.8 326.3,48.8 326.3,46.2 319.8,46.2 319.8,42.2 327.4,42.2 327.4,39.5 316.4,39.5 
		316.4,55.9 327.5,55.9 327.5,53.2 319.8,53.2 	"/>
	<polygon class="st0" points="430,71.3 433.3,71.3 433.3,80.3 435.5,80.3 435.5,71.3 438.8,71.3 438.8,69.5 430,69.5 	"/>
	<polygon class="st0" points="448.3,75.6 452.5,75.6 452.5,73.9 448.3,73.9 448.3,71.3 453.3,71.3 453.3,69.5 446,69.5 446,80.3 
		453.3,80.3 453.3,78.5 448.3,78.5 	"/>
	<path class="st0" d="M418.5,69.5l-4,10.8h2.4l0.7-2.2h3.9l0.8,2.2h2.4l-4-10.8H418.5z M418.1,76.3l1.3-4l1.4,4H418.1z"/>
	<path class="st1" d="M591.4,50.3c0,2.2-1.2,3.3-3.5,3.3c-1.1,0-2-0.3-2.6-0.8c-0.6-0.5-0.9-1.4-0.9-2.6V38.3h-4.1v12
		c0,1.9,0.7,3.5,2.1,4.6c1.4,1.1,3.2,1.7,5.5,1.7c2.4,0,4.2-0.6,5.6-1.7c1.4-1.1,2-2.7,2-4.7V38.3h-4.1L591.4,50.3L591.4,50.3z"/>
	<path class="st1" d="M621.2,42.1c-0.5-0.8-1.1-1.5-2-1.9c-0.9-0.4-1.9-0.7-3-0.7h-5.9v16.4h3.1v-5.8h2.8c1.8,0,3.2-0.5,4.2-1.4
		c1-0.9,1.5-2.2,1.5-3.8C621.9,43.9,621.7,42.9,621.2,42.1z M618.1,46.8c-0.4,0.4-1.1,0.6-1.9,0.6h-2.8v-5.2h2.9
		c0.8,0,1.4,0.3,1.8,0.8s0.7,1.2,0.7,2C618.7,45.7,618.5,46.3,618.1,46.8z"/>
	<polygon class="st1" points="452.2,51.4 448,39.5 443.5,39.5 443.5,55.9 446.9,55.9 446.9,51.4 446.7,44.9 450.4,55.9 453.3,55.9 
		457.7,44.9 457.4,51.4 457.4,55.9 460.8,55.9 460.8,39.5 456.4,39.5 	"/>
	<polygon class="st1" points="403,48.8 409.5,48.8 409.5,46.2 403,46.2 403,42.2 410.6,42.2 410.6,39.5 399.6,39.5 399.6,55.9 
		410.6,55.9 410.6,53.2 403,53.2 	"/>
	<rect x="464" y="73.2" class="st1" width="125.5" height="2.6"/>
	<rect x="424.7" y="39.2" class="st1" width="3.1" height="16.7"/>
	<polygon class="st0" points="349.8,69.5 347.6,69.5 347.6,80.3 354.5,80.3 354.5,78.5 349.8,78.5 	"/>
	<polygon class="st0" points="400.2,71.3 403.5,71.3 403.5,80.3 405.7,80.3 405.7,71.3 409,71.3 409,69.5 400.2,69.5 	"/>
	<polygon class="st1" points="351.5,49.6 344.6,39.5 341.1,39.5 341.1,55.9 344.6,55.9 344.7,46 351.4,55.9 354.9,55.9 354.9,39.5 
		351.4,39.5 	"/>
	<path class="st0" d="M334.5,69.5l-4,10.8h2.4l0.7-2.2h3.9l0.8,2.2h2.4l-4-10.8H334.5z M334.2,76.3l1.3-4l1.4,4H334.2z"/>
	<polygon class="st0" points="373.3,75.6 377.5,75.6 377.5,73.9 373.3,73.9 373.3,71.3 378.2,71.3 378.2,69.5 371,69.5 371,80.3 
		378.3,80.3 378.3,78.5 373.3,78.5 	"/>
	<polygon class="st1" points="380.6,46.2 373.8,46.2 373.8,39.5 370.4,39.5 370.4,55.9 373.8,55.9 373.8,48.9 380.6,48.9 
		380.6,55.9 384.1,55.9 384.1,39.5 380.6,39.5 	"/>
	<path class="st0" d="M389.4,71.1c0.6,0,1,0.1,1.3,0.4s0.5,0.7,0.5,1.2h2.2c0-0.7-0.2-1.2-0.5-1.7s-0.8-0.9-1.4-1.2
		s-1.3-0.4-2.1-0.4s-1.5,0.1-2.1,0.4c-0.6,0.3-1.1,0.6-1.4,1.1c-0.3,0.5-0.5,1-0.5,1.6c0,1.1,0.6,2,1.8,2.7c0.5,0.2,1.1,0.5,1.8,0.7
		s1.3,0.5,1.6,0.7s0.4,0.6,0.4,1c0,0.4-0.1,0.7-0.4,0.9c-0.3,0.2-0.7,0.3-1.2,0.3c-1.4,0-2.1-0.6-2.1-1.8h-2.2
		c0,0.7,0.2,1.3,0.5,1.8c0.4,0.5,0.9,0.9,1.6,1.3c0.7,0.3,1.4,0.5,2.3,0.5c1.2,0,2.1-0.3,2.9-0.8c0.7-0.5,1.1-1.3,1.1-2.2
		c0-0.8-0.3-1.5-0.9-2.1s-1.5-1-2.8-1.4c-0.7-0.2-1.2-0.4-1.6-0.7s-0.5-0.5-0.5-0.9c0-0.4,0.1-0.7,0.5-0.9
		C388.4,71.2,388.8,71.1,389.4,71.1z"/>
	<path class="st1" d="M301.8,42.3c-0.5-0.8-1.1-1.5-2-1.9s-1.9-0.7-3-0.7h-5.9v16.4h3.1v-5.8h2.8c1.8,0,3.2-0.5,4.2-1.4
		c1-0.9,1.5-2.2,1.5-3.8C302.5,44,302.2,43.1,301.8,42.3z M298.7,46.9c-0.4,0.4-1.1,0.6-1.9,0.6H294v-5.2h2.9c0.8,0,1.4,0.3,1.8,0.8
		s0.7,1.2,0.7,2C299.3,45.9,299.1,46.5,298.7,46.9z"/>
</g>
</svg>
